<svg xmlns="http://www.w3.org/2000/svg" xmlns:xlink="http://www.w3.org/1999/xlink" width="0" height="0">
    <symbol id="arrow-down"  viewBox="0 0 16 16" fill="none">
        <path d="M11.5867 9.43604L7.9999 13.0229L4.41309 9.43604" stroke="#364860" stroke-width="0.886364" stroke-miterlimit="10" stroke-linecap="round" stroke-linejoin="round"/>
        <path opacity="0.4" d="M8 2.97705V12.9221" stroke="#364860" stroke-width="0.886364" stroke-miterlimit="10" stroke-linecap="round" stroke-linejoin="round"/>
    </symbol>
    <symbol id="messages"  viewBox="0 0 20 20" fill="none">
        <path d="M14.1665 7.49984C14.1665 10.7248 11.3665 13.3332 7.9165 13.3332L7.14151 14.2665L6.68317 14.8165C6.29151 15.2832 5.5415 15.1832 5.28317 14.6248L4.1665 12.1665C2.64984 11.0998 1.6665 9.40817 1.6665 7.49984C1.6665 4.27484 4.4665 1.6665 7.9165 1.6665C10.4332 1.6665 12.6082 3.05818 13.5832 5.05818C13.9582 5.79984 14.1665 6.62484 14.1665 7.49984Z" stroke="white" stroke-linecap="round" stroke-linejoin="round"/>
        <path opacity="0.4" d="M18.3333 10.7164C18.3333 12.6248 17.3499 14.3165 15.8333 15.3831L14.7166 17.8414C14.4583 18.3997 13.7083 18.5081 13.3166 18.0331L12.0833 16.5498C10.0666 16.5498 8.2666 15.6581 7.1416 14.2664L7.9166 13.3331C11.3666 13.3331 14.1666 10.7248 14.1666 7.49977C14.1666 6.62477 13.9583 5.79977 13.5833 5.05811C16.3083 5.68311 18.3333 7.98309 18.3333 10.7164Z" stroke="white" stroke-linecap="round" stroke-linejoin="round"/>
        <path opacity="0.4" d="M5.8335 7.5H10.0002" stroke="white" stroke-linecap="round" stroke-linejoin="round"/>
    </symbol>
    <symbol id="shapes"  viewBox="0 0 20 20" fill="none">
        <path d="M11.1918 12.5002H3.66679C2.15012 12.5002 1.18345 10.8752 1.91678 9.54188L3.85845 6.00853L5.67512 2.7002C6.43345 1.3252 8.41678 1.3252 9.17512 2.7002L11.0001 6.00853L11.8751 7.6002L12.9418 9.54188C13.6751 10.8752 12.7085 12.5002 11.1918 12.5002Z" stroke="white" stroke-linecap="round" stroke-linejoin="round"/>
        <path opacity="0.4" d="M18.3333 12.9167C18.3333 15.9083 15.9083 18.3333 12.9167 18.3333C9.925 18.3333 7.5 15.9083 7.5 12.9167C7.5 12.775 7.50833 12.6417 7.51667 12.5H11.1917C12.7083 12.5 13.675 10.875 12.9417 9.54168L11.875 7.6C12.2083 7.53333 12.5583 7.5 12.9167 7.5C15.9083 7.5 18.3333 9.925 18.3333 12.9167Z" stroke="white" stroke-linecap="round" stroke-linejoin="round"/>
    </symbol>
    <symbol id="people"  viewBox="0 0 20 20" fill="none">
        <path opacity="0.4" d="M14.9979 5.96651C14.9479 5.95817 14.8896 5.95817 14.8396 5.96651C13.6896 5.92484 12.7729 4.98317 12.7729 3.81651C12.7729 2.62484 13.7313 1.6665 14.9229 1.6665C16.1146 1.6665 17.0729 2.63317 17.0729 3.81651C17.0646 4.98317 16.1479 5.92484 14.9979 5.96651Z" stroke="white" stroke-linecap="round" stroke-linejoin="round"/>
        <path opacity="0.4" d="M14.1397 12.0333C15.2814 12.225 16.5398 12.025 17.4231 11.4333C18.5981 10.65 18.5981 9.36664 17.4231 8.58331C16.5314 7.99164 15.2564 7.79163 14.1147 7.99163" stroke="white" stroke-linecap="round" stroke-linejoin="round"/>
        <path opacity="0.4" d="M4.97295 5.96651C5.02295 5.95817 5.08128 5.95817 5.13128 5.96651C6.28128 5.92484 7.19795 4.98317 7.19795 3.81651C7.19795 2.62484 6.23962 1.6665 5.04795 1.6665C3.85628 1.6665 2.89795 2.63317 2.89795 3.81651C2.90628 4.98317 3.82295 5.92484 4.97295 5.96651Z" stroke="white" stroke-linecap="round" stroke-linejoin="round"/>
        <path opacity="0.4" d="M5.83109 12.0333C4.68942 12.225 3.43109 12.025 2.54775 11.4333C1.37275 10.65 1.37275 9.36664 2.54775 8.58331C3.43942 7.99164 4.71442 7.79163 5.85609 7.99163" stroke="white" stroke-linecap="round" stroke-linejoin="round"/>
        <path d="M9.9999 12.1916C9.9499 12.1833 9.89157 12.1833 9.84157 12.1916C8.69157 12.1499 7.7749 11.2083 7.7749 10.0416C7.7749 8.84994 8.73323 7.8916 9.9249 7.8916C11.1166 7.8916 12.0749 8.85827 12.0749 10.0416C12.0666 11.2083 11.1499 12.1583 9.9999 12.1916Z" stroke="white" stroke-linecap="round" stroke-linejoin="round"/>
        <path d="M7.5751 14.8168C6.4001 15.6001 6.4001 16.8835 7.5751 17.6668C8.90843 18.5585 11.0918 18.5585 12.4251 17.6668C13.6001 16.8835 13.6001 15.6001 12.4251 14.8168C11.1001 13.9335 8.90843 13.9335 7.5751 14.8168Z" stroke="white" stroke-linecap="round" stroke-linejoin="round"/>
    </symbol>
    <symbol id="user-add"  viewBox="0 0 20 20" fill="none">
        <path d="M10.0002 9.99984C12.3013 9.99984 14.1668 8.13436 14.1668 5.83317C14.1668 3.53198 12.3013 1.6665 10.0002 1.6665C7.69898 1.6665 5.8335 3.53198 5.8335 5.83317C5.8335 8.13436 7.69898 9.99984 10.0002 9.99984Z" stroke="white" stroke-linecap="round" stroke-linejoin="round"/>
        <path opacity="0.4" d="M2.8418 18.3333C2.8418 15.1083 6.05013 12.5 10.0001 12.5C10.8001 12.5 11.5751 12.6083 12.3001 12.8083" stroke="white" stroke-linecap="round" stroke-linejoin="round"/>
        <path d="M18.3332 14.9998C18.3332 15.2665 18.2998 15.5248 18.2332 15.7748C18.1582 16.1082 18.0248 16.4332 17.8498 16.7165C17.2748 17.6832 16.2165 18.3332 14.9998 18.3332C14.1415 18.3332 13.3665 18.0081 12.7832 17.4748C12.5332 17.2581 12.3165 16.9998 12.1498 16.7165C11.8415 16.2165 11.6665 15.6248 11.6665 14.9998C11.6665 14.0998 12.0248 13.2749 12.6082 12.6749C13.2165 12.0499 14.0665 11.6665 14.9998 11.6665C15.9832 11.6665 16.8748 12.0915 17.4748 12.7749C18.0082 13.3665 18.3332 14.1498 18.3332 14.9998Z" stroke="white" stroke-miterlimit="10" stroke-linecap="round" stroke-linejoin="round"/>
        <path d="M16.2416 14.9834H13.7583" stroke="white" stroke-miterlimit="10" stroke-linecap="round" stroke-linejoin="round"/>
        <path d="M15 13.7666V16.2583" stroke="white" stroke-miterlimit="10" stroke-linecap="round" stroke-linejoin="round"/>
    </symbol>
    <symbol id="mouse-circle"  viewBox="0 0 20 20" fill="none">
        <path opacity="0.4" d="M17.4667 14.8667L16.1084 15.3251C15.7334 15.4501 15.4334 15.7417 15.3084 16.1251L14.8501 17.4834C14.4584 18.6584 12.8084 18.6334 12.4417 17.4584L10.9001 12.5001C10.6001 11.5167 11.5084 10.6001 12.4834 10.9084L17.4501 12.4501C18.6167 12.8167 18.6334 14.4751 17.4667 14.8667Z" stroke="white" stroke-linecap="round" stroke-linejoin="round"/>
        <path d="M18.3332 9.99984C18.3332 5.39984 14.5998 1.6665 9.99984 1.6665C5.39984 1.6665 1.6665 5.39984 1.6665 9.99984C1.6665 14.5998 5.39984 18.3332 9.99984 18.3332" stroke="white" stroke-linecap="round" stroke-linejoin="round"/>
    </symbol>
    <symbol id="routing"  viewBox="0 0 20 20" fill="none">
        <path opacity="0.4" d="M4.55827 7.49984C6.1691 7.49984 7.47493 6.194 7.47493 4.58317C7.47493 2.97234 6.1691 1.6665 4.55827 1.6665C2.94744 1.6665 1.6416 2.97234 1.6416 4.58317C1.6416 6.194 2.94744 7.49984 4.55827 7.49984Z" stroke="white"/>
        <path opacity="0.4" d="M14.1418 12.5H16.6418C17.5584 12.5 18.3084 13.25 18.3084 14.1667V16.6667C18.3084 17.5833 17.5584 18.3333 16.6418 18.3333H14.1418C13.2251 18.3333 12.4751 17.5833 12.4751 16.6667V14.1667C12.4751 13.25 13.2251 12.5 14.1418 12.5Z" stroke="white"/>
        <path d="M9.99991 4.1665H12.2332C13.7749 4.1665 14.4916 6.07484 13.3332 7.0915L6.67491 12.9165C5.51658 13.9248 6.23325 15.8332 7.76658 15.8332H9.99991" stroke="white" stroke-linecap="round" stroke-linejoin="round"/>
        <path d="M4.57209 4.58317H4.58172" stroke="white" stroke-linecap="round" stroke-linejoin="round"/>
        <path d="M15.4051 15.4167H15.4147" stroke="white" stroke-linecap="round" stroke-linejoin="round"/>
    </symbol>
    <symbol id="search-normal"  viewBox="0 0 20 20" fill="none">
        <path d="M9.1665 16.6665C13.3086 16.6665 16.6665 13.3086 16.6665 9.1665C16.6665 5.02437 13.3086 1.6665 9.1665 1.6665C5.02437 1.6665 1.6665 5.02437 1.6665 9.1665C1.6665 13.3086 5.02437 16.6665 9.1665 16.6665Z" stroke="#131B21" stroke-width="1.5" stroke-linecap="round" stroke-linejoin="round"/>
        <path opacity="0.4" d="M15.775 17.2413C16.2167 18.5747 17.225 18.708 18 17.5413C18.7083 16.4747 18.2417 15.5997 16.9583 15.5997C16.0084 15.5913 15.475 16.333 15.775 17.2413Z" stroke="#131B21" stroke-width="1.5" stroke-linecap="round" stroke-linejoin="round"/>
    </symbol>
    <symbol id="diagram"  viewBox="0 0 20 20" fill="none">
        <path d="M1.6665 1.6665V15.8332C1.6665 17.2165 2.78317 18.3332 4.1665 18.3332H18.3332" stroke="#131B21" stroke-width="1.5" stroke-miterlimit="10" stroke-linecap="round" stroke-linejoin="round"/>
        <path opacity="0.4" d="M4.1665 14.1668L7.9915 9.70018C8.62484 8.96684 9.74984 8.91683 10.4332 9.6085L11.2248 10.4002C11.9082 11.0835 13.0332 11.0418 13.6665 10.3085L17.4998 5.8335" stroke="#131B21" stroke-width="1.5" stroke-miterlimit="10" stroke-linecap="round" stroke-linejoin="round"/>
    </symbol>
    <symbol id="document"  viewBox="0 0 20 20" fill="none">
        <path d="M8.33317 4.99984H11.6665C13.3332 4.99984 13.3332 4.1665 13.3332 3.33317C13.3332 1.6665 12.4998 1.6665 11.6665 1.6665H8.33317C7.49984 1.6665 6.6665 1.6665 6.6665 3.33317C6.6665 4.99984 7.49984 4.99984 8.33317 4.99984Z" stroke="#131B21" stroke-width="1.5" stroke-miterlimit="10" stroke-linecap="round" stroke-linejoin="round"/>
        <path opacity="0.4" d="M13.3333 3.3501C16.1083 3.5001 17.5 4.5251 17.5 8.33343V13.3334C17.5 16.6668 16.6667 18.3334 12.5 18.3334H7.5C3.33333 18.3334 2.5 16.6668 2.5 13.3334V8.33343C2.5 4.53343 3.89167 3.5001 6.66667 3.3501" stroke="#131B21" stroke-width="1.5" stroke-miterlimit="10" stroke-linecap="round" stroke-linejoin="round"/>
    </symbol>
    <symbol id="like"  viewBox="0 0 20 20" fill="none">
        <path d="M15 15.7165H14.3667C13.7 15.7165 13.0667 15.9748 12.6 16.4414L11.175 17.8498C10.525 18.4914 9.46666 18.4914 8.81666 17.8498L7.39166 16.4414C6.925 15.9748 6.28333 15.7165 5.625 15.7165H5C3.61667 15.7165 2.5 14.6081 2.5 13.2415V4.14978C2.5 2.78311 3.61667 1.6748 5 1.6748H15C16.3833 1.6748 17.5 2.78311 17.5 4.14978V13.2415C17.5 14.5998 16.3833 15.7165 15 15.7165Z" stroke="#131B21" stroke-width="1.5" stroke-miterlimit="10" stroke-linecap="round" stroke-linejoin="round"/>
        <path opacity="0.4" d="M10.2333 12.4668C10.1083 12.5085 9.9 12.5085 9.76667 12.4668C8.68333 12.0918 6.25 10.5502 6.25 7.92517C6.25 6.76684 7.18333 5.8335 8.33333 5.8335C9.01667 5.8335 9.61667 6.1585 10 6.66683C10.3833 6.1585 10.9833 5.8335 11.6667 5.8335C12.8167 5.8335 13.75 6.76684 13.75 7.92517C13.7417 10.5502 11.3167 12.0918 10.2333 12.4668Z" stroke="#131B21" stroke-width="1.5" stroke-linecap="round" stroke-linejoin="round"/>
    </symbol>
    <symbol id="half-arrow-down" width="19" height="18" viewBox="0 0 19 18" fill="none">
        <path d="M15.4401 6.71289L10.5501 11.6029C9.97256 12.1804 9.02756 12.1804 8.45006 11.6029L3.56006 6.71289" stroke="#364860" stroke-width="1.5" stroke-miterlimit="10" stroke-linecap="round" stroke-linejoin="round"/>
    </symbol>
    <symbol id="burger" viewBox="0 0 36 23" fill="none" >
        <rect width="36" height="5" rx="2" fill="#364860"/>
        <rect y="9" width="36" height="5" rx="2" fill="#364860"/>
        <rect y="18" width="36" height="5" rx="2" fill="#364860"/>
    </symbol>
</svg>